<?xml version="1.0" encoding="UTF-8"?>
<svg width="194px" height="76px" viewBox="0 0 194 76" version="1.1" xmlns="http://www.w3.org/2000/svg" xmlns:xlink="http://www.w3.org/1999/xlink">
    <!-- Generator: Sketch 55 (78076) - https://sketchapp.com -->
    <title>Group 61</title>
    <desc>Created with Sketch.</desc>
    <defs>
        <polygon id="path-1" points="0.000128761062 0.00687211268 67.3363699 0.00687211268 67.3363699 26.7605634 0.000128761062 26.7605634"></polygon>
        <polygon id="path-3" points="0.187819469 0.164630986 40.2324896 0.164630986 40.2324896 44.9531223 0.187819469 44.9531223"></polygon>
    </defs>
    <g id="Pages" stroke="none" stroke-width="1" fill="none" fill-rule="evenodd">
        <g id="Homepage" transform="translate(-483.000000, -2490.000000)">
            <g id="universities" transform="translate(135.000000, 1854.000000)">
                <g id="schools" transform="translate(0.000000, 116.000000)">
                    <g id="logos">
                        <g id="unf" transform="translate(293.000000, 454.000000)">
                            <g id="color" transform="translate(55.000000, 66.000000)">
                                <g id="Group-61">
                                    <path d="M34.2235529,22.0756665 C32.6891502,22.2398693 30.7978648,20.8504608 28.9711746,18.7034073 C30.7184622,24.4400158 38.7561569,27.7120834 40.4019378,29.1055594 C37.1575883,23.0302693 38.0380993,20.2887031 35.9637586,18.4347313 C35.2632985,17.80832 30.0853869,11.783982 29.1568051,7.00090592 C28.4732985,11.2924439 31.5644223,16.1209059 33.1556945,18.2107989 C30.9931524,17.1945397 28.8668781,13.975351 27.3987874,11.1387313 C27.0987741,12.7886806 30.9961569,20.4475538 34.2235529,22.0756665" id="Fill-1" fill="#A1A1A4"></path>
                                    <g id="Group-5" transform="translate(0.000000, 49.074806)">
                                        <mask id="mask-2" fill="white">
                                            <use xlink:href="#path-1"></use>
                                        </mask>
                                        <g id="Clip-4"></g>
                                        <path d="M49.6400934,1.11775662 C51.5251553,1.55727211 51.9337571,3.85525521 51.9554319,5.48101296 L51.9554319,20.1751313 C51.9554319,21.9094299 52.1863434,24.7631763 50.2147969,25.4585228 L50.2147969,25.5739144 L57.5211288,25.5739144 L57.5211288,25.4585228 C55.5882106,24.7259256 55.8970226,21.9094299 55.8970226,20.1751313 L55.8970226,13.4768552 L58.7580934,13.4768552 C59.955142,13.4768552 64.3989009,13.3987144 65.0167394,14.5573397 L65.1321951,14.5573397 L65.1321951,10.1878749 L65.0167394,10.1878749 C64.5527704,10.418658 62.5249982,10.418658 61.9460027,10.418658 L55.8970226,10.418658 L55.8970226,3.2459707 C57.1350602,3.01518761 58.4868367,2.97643831 59.8399009,2.97643831 C61.6183058,2.97643831 66.0223633,3.13100732 67.2202704,4.48038197 L67.3363699,4.48038197 L67.3363699,0.00687211268 L67.2202704,0.00687211268 C66.7178876,0.276832676 66.0614208,0.199976338 65.4036664,0.199976338 L49.8982593,0.199976338 L49.8982593,0.199548169 L42.5434274,0.199548169 L42.5434274,0.315796056 C44.5881531,1.47484958 44.549954,3.01026366 44.549954,5.16566648 L44.549954,19.7557397 L30.4274407,1.97109746 L29.8872881,1.20146366 C29.6166752,0.892753803 29.4621619,0.700505915 29.3078633,0.238939718 L29.3078633,0.199548169 L16.5364827,0.199548169 L16.5364827,0.315367887 C18.4678987,1.04668056 18.2361288,3.85996507 18.2361288,5.59512 L18.2361288,17.1963594 C18.2361288,18.5840552 18.2747571,19.54872 17.4242903,20.70392 C16.149985,22.5148608 13.947527,23.4022411 11.7830535,23.4022411 C7.80433673,23.4022411 5.64029248,21.0126299 5.64029248,15.8853059 L5.64029248,5.59512 C5.64029248,3.85996507 5.40916637,1.04668056 7.34122611,0.315367887 L7.34122611,0.199548169 L0.000128761062,0.199548169 L0.000128761062,0.315367887 C1.97081681,1.04668056 1.69956018,3.85996507 1.69956018,5.59512 L1.69956018,15.8853059 C1.69956018,18.6613397 1.62208894,21.2442693 3.66960442,23.4790975 C5.40916637,25.367751 8.11336327,26.1774186 10.6634761,26.1774186 C17.421715,26.1774186 20.9956929,22.1674017 20.9956929,17.4583989 C20.9956929,16.6673566 21.0497726,14.8613397 21.0497726,14.0908496 L21.0497726,5.63408338 C21.0497726,3.85739606 21.4794053,1.55727211 23.3646819,1.11604394 C25.2506022,1.55598761 25.6600624,3.85868056 25.6806642,5.47972845 L25.6806642,20.5245172 C25.6806642,22.6809904 25.6806642,24.2200439 23.6359385,25.4142073 L23.6359385,25.5283144 L30.4654252,25.5283144 L30.4654252,25.4142073 C28.420485,24.2200439 28.4588987,22.6809904 28.4588987,20.5245172 L28.4588987,5.62808901 L41.6944628,22.3727087 C43.3921774,24.5666468 44.5885823,25.8370242 47.3277593,26.7605848 C47.3277593,26.7605848 47.313381,6.70900169 47.3277593,5.48101296 C47.3464296,3.85739606 47.7548168,1.55513127 49.6400934,1.11775662" id="Fill-3" fill="#004B8D" mask="url(#mask-2)"></path>
                                    </g>
                                    <g id="Group-8" transform="translate(5.150442, 0.049454)">
                                        <mask id="mask-4" fill="white">
                                            <use xlink:href="#path-3"></use>
                                        </mask>
                                        <g id="Clip-7"></g>
                                        <path d="M39.9507376,36.3494941 C40.2331535,33.7603561 35.2344345,30.5841983 28.1489279,26.7559392 C21.0664257,22.9278941 16.7024987,18.2492913 14.9105739,16.5460349 C13.7064434,15.401111 4.81763805,11.8156237 0.187819469,0.164502535 C1.89240133,13.0583842 9.10559602,18.8538659 12.0301889,20.7801983 C9.70905619,20.4333814 7.25766018,20.0936293 1.96536593,15.4360068 C5.7086646,21.7005476 8.65943894,24.9482096 16.1228593,27.9338321 C14.0141823,28.2802208 10.9376513,27.855049 7.75618009,26.7463054 C10.4575872,29.3318039 19.0182664,32.4839842 25.4228416,33.4272406 C24.4150717,36.5085589 16.2492597,42.7191504 16.1941071,43.3736068 C20.0635916,43.511049 21.8235407,42.2729983 22.2417996,42.3800406 C22.3664832,42.9186772 22.3130473,43.9447842 22.6325894,44.2519955 C23.7311358,44.2168856 26.5782575,42.6577082 26.8411447,42.1603899 C27.1134743,42.2762096 28.065877,44.0094377 28.6701956,43.7071504 C29.1002575,43.2376631 30.0904301,40.1946659 30.3543903,39.3670152 C30.4378704,39.0837814 30.566846,38.7172687 30.5915252,38.6483335 L32.0604743,41.38048 C32.0604743,41.38048 34.8002951,43.1687279 35.385085,43.5303166 C34.8522288,43.8803448 34.4929854,44.3905082 35.2035319,44.9531223 C34.833773,44.4322546 35.3146956,44.0154321 35.7413239,43.7649532 C36.1473504,43.6159504 36.9353681,43.4461814 37.1978261,44.4450997 C37.2347376,43.8167617 37.0759323,43.4952068 36.8557509,43.3492011 C37.1890274,43.2149701 38.3429412,42.7302828 38.4590407,43.61488 C38.5425208,43.0745307 38.3517398,42.8139899 38.0491513,42.7152969 C38.3693372,42.5994772 38.7238593,42.5519504 38.83395,42.7546885 C38.7060473,42.0175955 37.1006115,42.6279504 36.6881469,42.8356124 C36.0874765,42.2807054 34.3820363,40.3132687 34.3820363,40.3132687 L34.4155142,35.9450885 C35.0513792,36.0285814 36.0044257,36.1797251 36.5183969,36.3336518 C38.5000296,37.0000969 39.8685451,37.707218 39.2519942,38.3325589 C40.5526956,38.0110039 40.3013969,36.8361082 39.9507376,36.3494941" id="Fill-6" fill="#A1A1A4" mask="url(#mask-4)"></path>
                                    </g>
                                    <path d="M80.6471091,72.7964394 C80.6471091,73.5921915 80.6325162,74.1603718 81.3872706,74.6007437 L81.3872706,74.6437746 L78.866129,74.6437746 L78.866129,74.6007437 C79.6213126,74.1603718 79.6213126,73.5921915 79.6213126,72.7964394 L79.6213126,67.1266254 C79.6213126,66.3313014 79.6213126,65.762907 78.8807219,65.3364507 L78.8807219,65.2942761 L80.9602131,65.2942761 L80.9602131,65.3079775 C81.0172971,65.4786028 81.0741666,65.5496789 81.1739564,65.6635718 L81.3731069,65.9478761 L86.5862131,72.5121352 L86.5862131,67.1266254 C86.5862131,66.3313014 86.6003768,65.762907 85.8451931,65.3364507 L85.8451931,65.2942761 L88.3526002,65.2942761 L88.3526002,65.3364507 C87.6120095,65.762907 87.6120095,66.3313014 87.6120095,67.1266254 L87.6120095,75.0982761 C86.6003768,74.7570254 86.1587263,74.2883944 85.5320892,73.4785127 L80.6471091,67.2972507 L80.6471091,72.7964394 Z" id="Fill-9" fill="#004B8D"></path>
                                    <path d="M91.0298217,69.8122299 C91.0298217,71.8017172 92.4399699,73.8477228 94.6765496,73.8477228 C96.8414522,73.8477228 98.2230584,72.2707763 98.2230584,70.1534806 C98.2230584,68.0790017 96.8985363,66.0753848 94.6480075,66.0753848 C92.4399699,66.0753848 91.0298217,67.666889 91.0298217,69.8122299 M99.8467354,69.8696045 C99.8467354,72.7680946 97.4395473,74.8708327 94.6053018,74.8708327 C91.7850053,74.8708327 89.4063593,72.8533003 89.4063593,69.9402524 C89.4063593,67.2406468 91.7564633,64.981627 94.7477973,65.0522749 C97.7389168,65.0383594 99.8467354,67.3117228 99.8467354,69.8696045" id="Fill-11" fill="#004B8D"></path>
                                    <path d="M104.561257,65.2942975 C106.47014,65.2942975 107.509886,66.28872 107.509886,67.5815763 C107.509886,68.8320439 106.413485,69.8123369 105.245408,70.0822975 L107.296142,72.6543087 C107.894237,73.3931144 108.791702,74.13192 109.60354,74.6437961 L108.293397,74.6437961 C107.538428,74.6437961 107.068235,74.4590411 106.640963,73.9330355 L104.903333,71.7874806 L103.592974,69.7842918 C104.732295,69.6136665 106.056817,69.0876608 106.056817,67.7519876 C106.056817,66.7288777 105.173945,66.1322242 104.219611,66.174827 C103.892344,66.1891707 103.57881,66.2317735 103.251113,66.28872 L103.251113,72.6543087 C103.251113,73.3079087 103.165487,74.3451482 103.892344,74.6007651 L103.892344,74.6437961 L101.171622,74.6437961 L101.171622,74.6007651 C101.898049,74.3451482 101.79826,73.2935651 101.79826,72.6543087 L101.79826,67.297058 C101.79826,66.6436721 101.898049,65.6066468 101.171622,65.3364721 L101.171622,65.2942975 L104.561257,65.2942975 Z" id="Fill-13" fill="#004B8D"></path>
                                    <path d="M113.463475,72.7964394 C113.463475,73.6063211 113.449312,74.1603718 114.204066,74.6007437 L114.204066,74.6437746 L111.384199,74.6437746 L111.384199,74.6007437 C112.096247,74.3309972 112.010621,73.2935437 112.010621,72.6542873 L112.010621,66.3169577 L110.757132,66.3169577 C110.145088,66.3169577 109.503858,66.4734535 109.061993,66.8853521 L109.019716,66.8853521 L109.518022,65.1942986 L109.560727,65.1942986 C109.731765,65.2653746 109.917181,65.2653746 110.101953,65.2942761 L115.770873,65.2942761 C116.01273,65.2942761 116.240637,65.2797183 116.426482,65.1942986 L116.468758,65.1942986 L116.01273,66.8853521 L115.970453,66.8853521 C115.785037,66.3880338 115.215484,66.3169577 114.745292,66.3169577 L113.463475,66.3169577 L113.463475,72.7964394 Z" id="Fill-15" fill="#004B8D"></path>
                                    <path d="M119.929598,70.0823403 L119.929598,72.6543515 C119.929598,73.2936079 119.844616,74.3310614 120.556665,74.6005938 L120.556665,74.6438389 L117.850322,74.6438389 L117.850322,74.6005938 C118.5628,74.3310614 118.477173,73.2936079 118.477173,72.6543515 L118.477173,67.2829713 C118.477173,66.6437149 118.576534,65.6066896 117.850322,65.3365149 L117.850322,65.2943403 L120.556665,65.2943403 L120.556665,65.3365149 C119.844616,65.6066896 119.929598,66.6437149 119.929598,67.2971008 L119.929598,69.0592304 L125.071671,69.0592304 L125.071671,67.2971008 C125.071671,66.6437149 125.171461,65.6066896 124.445034,65.3365149 L124.445034,65.2943403 L127.165755,65.2943403 L127.165755,65.3365149 C126.439328,65.6066896 126.524311,66.6437149 126.524311,67.2829713 L126.524311,72.6543515 C126.524311,73.2936079 126.439328,74.3310614 127.165755,74.6005938 L127.165755,74.6438389 L124.445034,74.6438389 L124.445034,74.6005938 C125.171461,74.3310614 125.071671,73.2936079 125.071671,72.6543515 L125.071671,70.0823403 L119.929598,70.0823403 Z" id="Fill-17" fill="#004B8D"></path>
                                    <path d="M135.428288,72.6542873 C135.428288,73.2935437 135.314335,74.3309972 136.026383,74.6007437 L136.026383,74.6437746 L133.334204,74.6437746 L133.334204,74.6007437 C134.060631,74.3451268 133.97522,73.2935437 133.97522,72.6542873 L133.97522,67.2972507 C133.97522,66.6436507 134.060631,65.6066254 133.334204,65.3364507 L133.334204,65.2942761 L137.891917,65.2942761 C138.134202,65.2942761 138.376487,65.3223211 138.561903,65.2227718 L138.604609,65.2227718 L138.604609,66.8710085 L138.561903,66.8710085 C138.120038,66.3739042 137.536107,66.3169577 136.881142,66.3169577 C136.382193,66.3169577 135.883888,66.3313014 135.428288,66.416507 L135.428288,69.0591662 L137.137162,69.0591662 C137.350906,69.0591662 137.578813,69.0591662 137.74985,68.9739606 L137.792771,68.9739606 L137.792771,70.4804732 L137.74985,70.4804732 C137.521943,70.0540169 136.923848,70.0822761 136.481983,70.0822761 L135.428288,70.0822761 L135.428288,72.6542873 Z" id="Fill-19" fill="#004B8D"></path>
                                    <path d="M144.529592,73.6201724 C145.498305,73.677547 146.338685,73.3504259 147.050734,72.7537724 L147.09344,72.7537724 L146.35242,74.6437104 L140.498727,74.6437104 L140.498727,74.6006794 C141.225583,74.3452766 141.139957,73.2936935 141.139957,72.6542231 L141.139957,67.2971865 C141.139957,66.6435865 141.225583,65.6065611 140.498727,65.3366006 L140.498727,65.2942118 L143.219019,65.2942118 L143.219019,65.3366006 C142.493021,65.6065611 142.592382,66.6579301 142.592382,67.2971865 L142.592382,73.492578 L144.529592,73.6201724 Z" id="Fill-21" fill="#004B8D"></path>
                                    <path d="M149.030349,69.8122299 C149.030349,71.8017172 150.440283,73.8477228 152.676433,73.8477228 C154.841765,73.8477228 156.223371,72.2707763 156.223371,70.1534806 C156.223371,68.0790017 154.89842,66.0753848 152.647891,66.0753848 C150.440283,66.0753848 149.030349,67.666889 149.030349,69.8122299 M157.846619,69.8696045 C157.846619,72.7680946 155.43986,74.8708327 152.605186,74.8708327 C149.785318,74.8708327 147.406672,72.8533003 147.406672,69.9402524 C147.406672,67.2406468 149.756776,64.981627 152.747681,65.0522749 C155.73923,65.0383594 157.846619,67.3117228 157.846619,69.8696045" id="Fill-23" fill="#004B8D"></path>
                                    <path d="M162.419075,65.2942975 C164.327958,65.2942975 165.367274,66.28872 165.367274,67.5815763 C165.367274,68.8320439 164.270444,69.8123369 163.102796,70.0822975 L165.15396,72.6543087 C165.752055,73.3931144 166.649519,74.13192 167.461358,74.6437961 L166.150785,74.6437961 C165.395816,74.6437961 164.926053,74.4590411 164.498351,73.9330355 L162.76115,71.7874806 L161.450362,69.7842918 C162.590112,69.6136665 163.914635,69.0876608 163.914635,67.7519876 C163.914635,66.7288777 163.031548,66.1322242 162.077,66.174827 C161.749732,66.1891707 161.436199,66.2317735 161.108502,66.28872 L161.108502,72.6543087 C161.108502,73.3079087 161.022876,74.3451482 161.749732,74.6007651 L161.749732,74.6437961 L159.02944,74.6437961 L159.02944,74.6007651 C159.755438,74.3451482 159.655648,73.2935651 159.655648,72.6543087 L159.655648,67.297058 C159.655648,66.6436721 159.755438,65.6066468 159.02944,65.3364721 L159.02944,65.2942975 L162.419075,65.2942975 Z" id="Fill-25" fill="#004B8D"></path>
                                    <path d="M168.671862,67.2971437 C168.671862,66.6435437 168.771652,65.6067324 168.045225,65.3365577 L168.045225,65.2943831 L170.751139,65.2943831 L170.751139,65.3365577 C170.03909,65.6067324 170.124716,66.6578873 170.124716,67.2971437 L170.124716,72.6541803 C170.124716,73.2936507 170.03909,74.3308901 170.751139,74.6006366 L170.751139,74.6436676 L168.045225,74.6436676 L168.045225,74.6006366 C168.757274,74.3452338 168.671862,73.2936507 168.671862,72.6541803 L168.671862,67.2971437 Z" id="Fill-27" fill="#004B8D"></path>
                                    <path d="M174.668136,73.5210727 C175.009782,73.5921487 175.351857,73.6201938 175.708096,73.6201938 C177.830079,73.6201938 179.724368,72.5120924 179.724368,70.0539741 C179.724368,67.5671685 178.329028,66.317129 175.949952,66.317129 C175.52268,66.317129 175.095194,66.3738614 174.668136,66.4734107 L174.668136,73.5210727 Z M173.215282,67.2406896 C173.215282,66.5870896 173.315072,65.5498501 172.58886,65.336622 L172.58886,65.2942332 L176.07807,65.2942332 C179.325638,65.2942332 181.348045,67.0559346 181.348045,69.8833487 C181.348045,72.6827177 179.197306,74.6437318 176.007251,74.6437318 L172.58886,74.6437318 L172.58886,74.6007008 C173.300908,74.1177262 173.215282,73.435867 173.215282,72.5975121 L173.215282,67.2406896 Z" id="Fill-29" fill="#004B8D"></path>
                                    <path d="M186.048318,66.5018625 L184.638384,70.0824259 L187.444517,70.0824259 L186.048318,66.5018625 Z M184.267767,71.134009 L183.527176,73.1371977 C183.228236,73.9329499 183.128661,74.3452766 183.812167,74.6006794 L183.812167,74.6437104 L181.191665,74.6437104 L181.191665,74.6006794 C182.017882,74.1887808 182.259738,73.3930287 182.573271,72.583147 L184.951917,66.6579301 C185.151282,66.1464823 185.421681,65.5498287 184.738174,65.3366006 L184.738174,65.2942118 L186.988488,65.2942118 L189.951065,72.583147 C190.278762,73.3930287 190.535212,74.1887808 191.34705,74.6006794 L191.34705,74.6437104 L188.426964,74.6437104 L188.426964,74.6006794 C189.124849,74.2883301 189.011324,74.1320485 188.626543,73.1371977 L187.857411,71.134009 L184.267767,71.134009 Z" id="Fill-31" fill="#004B8D"></path>
                                    <path d="M86.2880454,57.4149814 C85.6747135,58.2357814 84.6426936,58.8512744 83.0786759,58.8512744 C81.9344192,58.8512744 80.8742865,58.5179448 80.1523662,57.7650096 C79.5607091,57.1478039 79.3072644,56.3704631 79.3072644,54.8960631 L79.3072644,51.2634772 C79.3072644,50.6240068 79.4068396,49.5871955 78.680198,49.3170208 L78.680198,49.274418 L81.3865409,49.274418 L81.3865409,49.3170208 C80.6744923,49.5871955 80.7599038,50.6240068 80.7599038,51.2634772 L80.7599038,54.8960631 C80.7599038,57.0754434 81.661875,57.8281645 83.2752511,57.8281645 C84.3021206,57.8281645 85.0470033,57.3668124 85.5171958,56.6990828 C85.8302998,56.2726265 85.7890962,55.083387 85.7890962,54.5717251 L85.7890962,51.2634772 C85.7890962,50.6240068 85.8747223,49.5871955 85.1626737,49.3170208 L85.1626737,49.274418 L87.4520454,49.274418 L87.4662091,49.3170208 C86.7397821,49.5871955 86.8254082,50.6240068 86.8254082,51.2780349 L86.8254082,53.9018546 C86.8254082,56.0703166 86.63849,56.9459223 86.2880454,57.4149814" id="Fill-33" fill="#004B8D"></path>
                                    <path d="M90.9860215,56.7764958 C90.9860215,57.5722479 90.9720723,58.1408563 91.7266122,58.5812282 L91.7266122,58.623831 L89.2054706,58.623831 L89.2054706,58.5812282 C89.9606542,58.1408563 89.9606542,57.5722479 89.9606542,56.7764958 L89.9606542,51.1071099 C89.9606542,50.3117859 89.9606542,49.7429634 89.2200635,49.3169352 L89.2200635,49.2743324 L91.29934,49.2743324 L91.29934,49.288462 C91.3564241,49.4590873 91.4132936,49.5301634 91.5130834,49.6440563 L91.7126631,49.9279324 L96.9268423,56.4926197 L96.9268423,51.1071099 C96.9268423,50.3117859 96.941006,49.7429634 96.1860369,49.3169352 L96.1860369,49.2743324 L98.6930148,49.2743324 L98.6930148,49.3169352 C97.9524241,49.7429634 97.9524241,50.3117859 97.9524241,51.1071099 L97.9524241,59.0783324 C96.941006,58.7375099 96.4995701,58.2688789 95.8727184,57.458569 L90.9860215,51.2779493 L90.9860215,56.7764958 Z" id="Fill-35" fill="#004B8D"></path>
                                    <path d="M101.21083,51.2780349 C101.21083,50.6240068 101.31062,49.5871955 100.584193,49.3170208 L100.584193,49.274418 L103.290536,49.274418 L103.290536,49.3170208 C102.578487,49.5871955 102.663899,50.6383504 102.663899,51.2780349 L102.663899,56.6344293 C102.663899,57.2741138 102.578487,58.3111392 103.290536,58.5810997 L103.290536,58.6239166 L100.584193,58.6239166 L100.584193,58.5810997 C101.296242,58.3252687 101.21083,57.2741138 101.21083,56.6344293 L101.21083,51.2780349 Z" id="Fill-37" fill="#004B8D"></path>
                                    <path d="M111.34072,51.8462794 C111.725072,50.8372992 112.209643,49.6724654 111.326557,49.3170851 L111.326557,49.2742682 L113.448539,49.2742682 L109.688501,59.0502231 C108.691676,58.396409 108.363979,58.2825161 107.951085,57.1602851 L105.800132,51.348747 C105.529304,50.624071 105.31599,49.7998456 104.688924,49.3170851 L104.688924,49.2742682 L106.76863,49.2742682 L106.754466,49.4448935 C106.754466,49.757671 107.025293,50.4534456 107.138818,50.7662231 L109.40351,56.9470569 L111.34072,51.8462794 Z" id="Fill-39" fill="#004B8D"></path>
                                    <path d="M116.849934,57.4304383 L118.659027,57.6006355 C119.599197,57.6858411 120.582073,57.3878355 121.293693,56.7622806 L121.336399,56.7622806 L120.695598,58.6237454 L114.756279,58.6237454 L114.756279,58.5811425 C115.482706,58.3253115 115.39708,57.2741566 115.39708,56.634258 L115.39708,51.2780777 C115.39708,50.6240496 115.482706,49.5870242 114.756279,49.3170637 L114.756279,49.2742468 L119.314421,49.2742468 C119.556277,49.2742468 119.798133,49.30272 119.983549,49.2031707 L120.026255,49.2031707 L120.026255,50.865751 L119.983549,50.865751 C119.542113,50.3543031 118.957753,50.2975707 118.302788,50.2975707 C117.804268,50.2975707 117.305963,50.3117003 116.849934,50.3969059 L116.849934,53.0395651 L118.544859,53.0395651 C118.772981,53.0395651 119.000888,53.0395651 119.171496,52.9543594 L119.214416,52.9543594 L119.214416,54.4604439 L119.171496,54.4604439 C118.943589,54.0485454 118.345494,54.062889 117.904058,54.062889 L116.849934,54.062889 L116.849934,57.4304383 Z" id="Fill-41" fill="#004B8D"></path>
                                    <path d="M125.723653,49.2743324 C127.632106,49.2743324 128.671852,50.268969 128.671852,51.5620394 C128.671852,52.812507 127.575022,53.7925859 126.407374,54.0627606 L128.458109,56.6343437 C129.056204,57.3735775 129.953668,58.1123831 130.765507,58.623831 L129.455363,58.623831 C128.700394,58.623831 128.230202,58.4390761 127.802929,57.9134986 L126.065299,55.7679437 L124.75494,53.7643268 C125.89469,53.5941296 127.218783,53.0681239 127.218783,51.7324507 C127.218783,50.7093408 126.336126,50.1126873 125.381578,50.1552901 C125.05431,50.1696338 124.740777,50.2122366 124.41308,50.268969 L124.41308,56.6343437 C124.41308,57.2883718 124.327454,58.3251831 125.05431,58.5812282 L125.05431,58.623831 L122.333589,58.623831 L122.333589,58.5812282 C123.060016,58.3251831 122.960226,57.2740282 122.960226,56.6343437 L122.960226,51.2779493 C122.960226,50.6241352 123.060016,49.5871099 122.333589,49.3169352 L122.333589,49.2743324 L125.723653,49.2743324 Z" id="Fill-43" fill="#004B8D"></path>
                                    <path d="M136.8473,50.9648507 C136.29191,50.3970986 135.408824,50.0699775 134.611149,50.0699775 C133.799311,50.0699775 132.773729,50.3827549 132.773729,51.363262 C132.773729,53.3092901 137.673516,53.2812451 137.673516,55.9102028 C137.673516,57.4304169 136.078596,58.8512958 133.85618,58.8512958 C132.987472,58.8512958 132.11855,58.7232732 131.306711,58.4248394 L130.893817,56.6485803 C131.734198,57.3736845 132.901846,57.8281859 134.013054,57.8281859 C134.824892,57.8281859 136.049625,57.3452113 136.049625,56.3503606 C136.049625,54.1339437 131.149837,54.5319268 131.149837,51.5193296 C131.149837,49.7289408 132.987472,49.0468676 134.725103,49.0468676 C135.437366,49.0468676 136.163578,49.1464169 136.8473,49.3596451 L136.8473,50.9648507 Z" id="Fill-45" fill="#004B8D"></path>
                                    <path d="M139.89825,51.2780349 C139.89825,50.6240068 139.99804,49.5871955 139.271613,49.3170208 L139.271613,49.274418 L141.977956,49.274418 L141.977956,49.3170208 C141.265907,49.5871955 141.351104,50.6383504 141.351104,51.2780349 L141.351104,56.6344293 C141.351104,57.2741138 141.265907,58.3111392 141.977956,58.5810997 L141.977956,58.6239166 L139.271613,58.6239166 L139.271613,58.5810997 C139.983662,58.3252687 139.89825,57.2741138 139.89825,56.6344293 L139.89825,51.2780349 Z" id="Fill-47" fill="#004B8D"></path>
                                    <path d="M147.558117,56.7764958 C147.558117,57.5863775 147.543953,58.1408563 148.299137,58.5812282 L148.299137,58.623831 L145.47884,58.623831 L145.47884,58.5812282 C146.190889,58.3110535 146.105263,57.2740282 146.105263,56.6343437 L146.105263,50.2974423 L144.852203,50.2974423 C144.2393,50.2974423 143.5985,50.4535099 143.157064,50.8658366 L143.114358,50.8658366 L143.612663,49.1747831 L143.655369,49.1747831 C143.826407,49.2458592 144.011823,49.2458592 144.196595,49.2743324 L149.865515,49.2743324 C150.1078,49.2743324 150.335278,49.2602028 150.520694,49.1747831 L150.5634,49.1747831 L150.1078,50.8658366 L150.065095,50.8658366 C149.879679,50.3680901 149.310126,50.2974423 148.840362,50.2974423 L147.558117,50.2974423 L147.558117,56.7764958 Z" id="Fill-49" fill="#004B8D"></path>
                                    <path d="M156.18955,56.7764958 C156.18955,57.6289803 156.18955,58.0556507 156.915977,58.5812282 L156.915977,58.623831 L154.138601,58.623831 L154.138601,58.5812282 C154.836486,58.226062 154.736696,57.3025014 154.736696,56.6343437 L154.736696,54.5320338 L152.372429,50.7378141 C151.987648,50.1126873 151.703086,49.6440563 151.019364,49.2743324 L152.315344,49.2743324 C152.770944,49.2743324 153.198431,49.3738817 153.383847,49.6723155 L155.662703,53.3809014 L157.428446,50.7378141 C157.670732,50.382862 157.998643,49.7003606 157.200968,49.3169352 L157.200968,49.2743324 L159.693139,49.2743324 L156.18955,54.5320338 L156.18955,56.7764958 Z" id="Fill-51" fill="#004B8D"></path>
                                    <path d="M166.552884,54.3195335 C166.552884,53.9206941 166.453953,53.6154096 166.257378,53.4030377 C166.060373,53.1910941 165.80607,53.0846941 165.494039,53.0846941 C164.85796,53.0846941 164.272311,53.5359842 163.737524,54.4383504 C163.202736,55.3413589 162.935342,56.238373 162.935342,57.130249 C162.935342,57.5378659 163.03921,57.8519279 163.247159,58.072649 C163.454893,58.2933701 163.716922,58.4034096 164.03303,58.4034096 C164.643358,58.4034096 165.215915,57.9546885 165.750274,57.0561758 C166.285061,56.1576631 166.552884,55.2456631 166.552884,54.3195335 M167.609583,54.7699673 C167.609583,55.4128631 167.438117,56.0497645 167.095612,56.6798152 C166.753752,57.3105082 166.276263,57.8097532 165.664648,58.1784068 C165.053247,58.5472744 164.458371,58.7316011 163.881736,58.7316011 C163.291581,58.7316011 162.810015,58.543849 162.437252,58.168773 C162.064703,57.793911 161.878643,57.3083673 161.878643,56.712142 C161.878643,56.081449 162.059982,55.4492575 162.424375,54.8149251 C162.788125,54.1803786 163.274842,53.6789927 163.884526,53.3096969 C164.493995,52.9410434 165.083291,52.7565025 165.652201,52.7565025 C166.220037,52.7565025 166.688298,52.9429701 167.057198,53.3163335 C167.425455,53.6894828 167.609583,54.1735279 167.609583,54.7699673" id="Fill-53" fill="#004B8D"></path>
                                    <path d="M172.325329,52.897049 L172.209229,53.3190096 L171.250603,53.3190096 L170.476534,56.1781082 C170.119866,57.4090941 169.781439,58.3645532 169.460824,59.0440575 C169.005654,60.0022997 168.515289,60.6646772 167.991446,61.0305476 C167.592716,61.3099279 167.193771,61.4499392 166.794826,61.4499392 C166.534944,61.4499392 166.313475,61.3730828 166.131278,61.2204406 C165.997152,61.1138265 165.929981,60.9753138 165.929981,60.8051166 C165.929981,60.669387 165.985348,60.5514265 166.095225,60.4518772 C166.205744,60.3510434 166.341158,60.3018039 166.500822,60.3018039 C166.61778,60.3018039 166.716282,60.3377701 166.796329,60.410987 C166.876375,60.4829194 166.916291,60.5659842 166.916291,60.6606096 C166.916291,60.7541645 166.876375,60.841511 166.796329,60.922649 C166.735596,60.9825927 166.705123,61.0277645 166.705123,61.0573082 C166.705123,61.0958434 166.719716,61.1256011 166.749116,61.1472237 C166.786671,61.1769814 166.845472,61.1919673 166.92509,61.1919673 C167.105355,61.1919673 167.295278,61.1335223 167.494213,61.016418 C167.693364,60.8993138 167.870625,60.7248349 168.025353,60.4927673 C168.180939,60.2606997 168.327083,59.9258715 168.465501,59.4880687 C168.529667,59.3078096 168.701348,58.7137251 168.981404,57.7060293 L170.222446,53.3190096 L168.964236,53.3190096 L169.057158,52.897049 C169.458463,52.897049 169.738304,52.8728575 169.897539,52.8229758 C170.056988,52.7737363 170.202702,52.679111 170.335326,52.5390997 C170.468165,52.3990885 170.625683,52.1376913 170.808523,51.7546941 C171.05274,51.2387504 171.287514,50.8390546 171.511773,50.5547504 C171.818654,50.1717532 172.140556,49.88488 172.479198,49.6932744 C172.816981,49.5018828 173.13545,49.4055448 173.43439,49.4055448 C173.749211,49.4055448 174.002656,49.48968 174.193437,49.6564518 C174.384218,49.8238659 174.479716,50.0051955 174.479716,50.2004406 C174.479716,50.3530828 174.429928,50.4811054 174.330138,50.5851504 C174.230778,50.6891955 174.102875,50.7416462 173.947503,50.7416462 C173.813377,50.7416462 173.70436,50.7026828 173.619592,50.6249701 C173.535468,50.5474715 173.492977,50.454773 173.492977,50.3468744 C173.492977,50.2779392 173.520231,50.1929476 173.575169,50.0914715 C173.630107,49.9902096 173.657362,49.9221307 173.657362,49.8876631 C173.657362,49.8270772 173.639764,49.7819054 173.60414,49.7519335 C173.553065,49.7086885 173.478384,49.6870659 173.380311,49.6870659 C173.132231,49.6870659 172.910118,49.7756969 172.713543,49.9525307 C172.449798,50.1871673 172.213521,50.5543223 172.004713,51.0539955 C171.8987,51.3156068 171.688605,51.9298152 171.374213,52.897049 L172.325329,52.897049 Z" id="Fill-55" fill="#004B8D"></path>
                                    <polygon id="Fill-57" fill="#004B8D" points="191.86688 73.7750839 192.665628 73.7750839 192.665628 74.003298 192.408964 74.003298 192.408964 74.6444811 192.123329 74.6444811 192.123329 74.003298 191.86688 74.003298"></polygon>
                                    <polygon id="Fill-59" fill="#004B8D" points="192.830077 74.6443955 192.830077 73.7749983 193.174942 73.7749983 193.328812 74.3172744 193.482466 73.7749983 193.827331 73.7749983 193.827331 74.6443955 193.570668 74.6443955 193.570668 74.3789307 193.574531 74.2436293 193.588909 74.0867054 193.586548 74.0867054 193.427958 74.6443955 193.229451 74.6443955 193.071075 74.0867054 193.0685 74.0867054 193.080732 74.2145138 193.086741 74.3498152 193.086741 74.6443955"></polygon>
                                </g>
                            </g>
                        </g>
                    </g>
                </g>
            </g>
        </g>
    </g>
</svg>